<svg xmlns="http://www.w3.org/2000/svg" xmlns:xlink="http://www.w3.org/1999/xlink" width="21.798" height="13.628" viewBox="0 0 21.798 13.628"><defs><style>.a{fill:none;}.b{clip-path:url(#a);}.c{fill:#2e4593;}.d{fill:#fcf5ff;}.e{fill:#f42525;}.f{fill:#fff;}.g{fill:#cd002a;}</style><clipPath id="a"><rect class="a" width="21.798" height="13.628" rx="1.005"/></clipPath></defs><g transform="translate(-493.609 -78.202)"><g transform="translate(493.61 78.202)"><g class="b"><g transform="translate(0.036 -0.019)"><g transform="translate(0.019 0.031)"><path class="c" d="M515.434,78.219V91.848l0,0H493.692V78.219Z" transform="translate(-493.692 -78.219)"/></g><g transform="translate(0.019)"><g transform="translate(0 0.004)"><path class="d" d="M515.434,90.415v1.419l0,0h-2.263L506.5,87.653l-.668-.419-.788-.5-.265-.166-.8-.5-.3-.189-.251-.156-.5-.315-.163-.1-.246-.153-2.37-1.488L499.075,83l-5.383-3.373V78.2l.018-.027.043.027h2.2l6.8,4.263.667.42L503.6,83l1.066.668.107.068.409.257.644.4.109.07.558.35.545.341,1.463.916,1.066.668Z" transform="translate(-493.692 -78.178)"/></g><path class="e" d="M515.436,91.792l0,.05-1.454-.008-7.49-4.7-.639-.4-.029-.018-.644-.4-.39-.246-.711-.445-.66-.411-.093-.06-.411-.259-.163-.1-1.8-1.128L499.9,83l-6.2-3.889v-.936l.018,0,.043.027L501.4,83l1.063.668.291.183.667.42.251.157.409.257.753.472.991.62.109.07.363.226.2.124.868.544Z" transform="translate(-493.692 -78.172)"/></g><g transform="translate(0.019 0.031)"><path class="d" d="M515.434,78.489v1.418l-4.958,3.107-1.064.668-2.372,1.488-.545.339-.558.351-.109.069-.251.157-.393.246-.409.255-.264.166-1.087.682-.667.42-6.377,4h-2.687V90.7l6.291-3.944,1.063-.668,1.464-.916.246-.154.163-.1.5-.315.251-.154,1.1-.692.107-.068.946-.592.12-.075.548-.343,7.1-4.451h1.667Z" transform="translate(-493.692 -78.219)"/><path class="e" d="M515.378,78.559l-7.105,4.454-1.066.668-.711.447-.558.351-.109.069-.991.622-.753.471-.409.257-.251.157-.051.032-.617.388-.449.28-8.126,5.1h-.489v-.638l7.108-4.46,1.066-.668.89-.558.163-.1.411-.257.093-.061.66-.411,1.1-.692.516-.324.128-.079.668-.42.27-.168,7.645-4.794h1.023l0,.3Z" transform="translate(-493.692 -78.219)"/></g><g transform="translate(0 4.825)"><rect class="f" width="21.771" height="3.74"/></g><g transform="translate(0 5.492)"><rect class="e" width="21.771" height="2.405"/></g><g transform="translate(9.75 0.031)"><rect class="g" width="2.404" height="13.631"/></g><g transform="translate(9.077 0.031)"><path class="f" d="M510.625,86.753h.668v5.1h-3.74v-5.1h.668v-3.74h-.668V78.219h3.74v4.794h-.668Z" transform="translate(-507.554 -78.219)"/><g transform="translate(0.655)"><rect class="e" width="2.43" height="13.631"/></g></g></g><g transform="translate(0.036 -0.019)"><g transform="translate(0.019 0.031)"><path class="c" d="M515.434,78.219V91.848l0,0H493.692V78.219Z" transform="translate(-493.692 -78.219)"/></g><g transform="translate(0.019)"><g transform="translate(0 0.004)"><path class="d" d="M515.434,90.415v1.419l0,0h-2.263L506.5,87.653l-.668-.419-.788-.5-.265-.166-.8-.5-.3-.189-.251-.156-.5-.315-.163-.1-.246-.153-2.37-1.488L499.075,83l-5.383-3.373V78.2l.018-.027.043.027h2.2l6.8,4.263.667.42L503.6,83l1.066.668.107.068.409.257.644.4.109.07.558.35.545.341,1.463.916,1.066.668Z" transform="translate(-493.692 -78.178)"/></g><path class="e" d="M515.436,91.792l0,.05-1.454-.008-7.49-4.7-.639-.4-.029-.018-.644-.4-.39-.246-.711-.445-.66-.411-.093-.06-.411-.259-.163-.1-1.8-1.128L499.9,83l-6.2-3.889v-.936l.018,0,.043.027L501.4,83l1.063.668.291.183.667.42.251.157.409.257.753.472.991.62.109.07.363.226.2.124.868.544Z" transform="translate(-493.692 -78.172)"/></g><g transform="translate(0.019 0.031)"><path class="d" d="M515.434,78.489v1.418l-4.958,3.107-1.064.668-2.372,1.488-.545.339-.558.351-.109.069-.251.157-.393.246-.409.255-.264.166-1.087.682-.667.42-6.377,4h-2.687V90.7l6.291-3.944,1.063-.668,1.464-.916.246-.154.163-.1.5-.315.251-.154,1.1-.692.107-.068.946-.592.12-.075.548-.343,7.1-4.451h1.667Z" transform="translate(-493.692 -78.219)"/><path class="e" d="M515.378,78.559l-7.105,4.454-1.066.668-.711.447-.558.351-.109.069-.991.622-.753.471-.409.257-.251.157-.051.032-.617.388-.449.28-8.126,5.1h-.489v-.638l7.108-4.46,1.066-.668.89-.558.163-.1.411-.257.093-.061.66-.411,1.1-.692.516-.324.128-.079.668-.42.27-.168,7.645-4.794h1.023l0,.3Z" transform="translate(-493.692 -78.219)"/></g><g transform="translate(0 4.825)"><rect class="f" width="21.771" height="3.74"/></g><g transform="translate(0 5.492)"><rect class="e" width="21.771" height="2.405"/></g><g transform="translate(9.75 0.031)"><rect class="g" width="2.404" height="13.631"/></g><g transform="translate(9.077 0.031)"><path class="f" d="M510.625,86.753h.668v5.1h-3.74v-5.1h.668v-3.74h-.668V78.219h3.74v4.794h-.668Z" transform="translate(-507.554 -78.219)"/><g transform="translate(0.655)"><rect class="e" width="2.43" height="13.631"/></g></g></g></g></g></g></svg>