<svg xmlns="http://www.w3.org/2000/svg" xmlns:xlink="http://www.w3.org/1999/xlink" width="21.798" height="13.628" viewBox="0 0 21.798 13.628"><defs><style>.a{fill:none;}.b{clip-path:url(#a);}.c{fill:#e32b30;}.d{fill:#fff;}.e{fill:#233c84;}</style><clipPath id="a"><path class="a" d="M-126.982-2333.313a.984.984,0,0,0-.2-.561.98.98,0,0,0-.7-.418l-.015,0c-.011,0-.02-.006-.03-.006s-.038-.012-.059-.012h-19.788c-.013,0-.023.006-.035.007a.226.226,0,0,0-.025,0,.98.98,0,0,0-.516.191.977.977,0,0,0-.366.49.28.28,0,0,0-.008.039.961.961,0,0,0-.055.273v11.618a.954.954,0,0,0,.055.272v0c.009.031.007.067.019.1a.994.994,0,0,0,.606.565.972.972,0,0,0,.324.066h19.788a.99.99,0,0,0,.647-.252.991.991,0,0,0,.357-.748v-11.628Z"/></clipPath></defs><g class="b" transform="translate(148.779 2334.313)"><rect class="c" width="21.739" height="13.631" transform="translate(-148.75 -2334.313)"/><rect class="d" width="21.739" height="2.35" transform="translate(-148.75 -2328.772)"/><rect class="d" width="2.351" height="13.631" transform="translate(-143.357 -2334.313)"/><rect class="e" width="1.415" height="13.631" transform="translate(-142.889 -2334.313)"/><rect class="e" width="21.739" height="1.594" transform="translate(-148.75 -2328.395)"/></g></svg>